<?xml version="1.0" encoding="UTF-8" standalone="no"?>
<!-- Created with Inkscape (http://www.inkscape.org/) -->

<svg
   xmlns:dc="http://purl.org/dc/elements/1.1/"
   xmlns:cc="http://creativecommons.org/ns#"
   xmlns:rdf="http://www.w3.org/1999/02/22-rdf-syntax-ns#"
   xmlns:svg="http://www.w3.org/2000/svg"
   xmlns="http://www.w3.org/2000/svg"
   xmlns:sodipodi="http://sodipodi.sourceforge.net/DTD/sodipodi-0.dtd"
   xmlns:inkscape="http://www.inkscape.org/namespaces/inkscape"
   version="1.0"
   width="300"
   height="166"
   id="svg2211"
   sodipodi:docname="logo.svg"
   inkscape:version="0.92.1 r">
  <metadata
     id="metadata3802">
    <rdf:RDF>
      <cc:Work
         rdf:about="">
        <dc:format>image/svg+xml</dc:format>
        <dc:type
           rdf:resource="http://purl.org/dc/dcmitype/StillImage" />
        <dc:title></dc:title>
      </cc:Work>
    </rdf:RDF>
  </metadata>
  <sodipodi:namedview
     pagecolor="#ffffff"
     bordercolor="#666666"
     borderopacity="1"
     objecttolerance="10"
     gridtolerance="10"
     guidetolerance="10"
     inkscape:pageopacity="0"
     inkscape:pageshadow="2"
     inkscape:window-width="1280"
     inkscape:window-height="935"
     id="namedview3800"
     showgrid="false"
     inkscape:zoom="2.0701754"
     inkscape:cx="143.91767"
     inkscape:cy="91.485496"
     inkscape:window-x="0"
     inkscape:window-y="30"
     inkscape:window-maximized="1"
     inkscape:current-layer="svg2211"
     height="643px" />
  <defs
     id="defs2214" />
  <path
     style="fill:#90c53f;stroke-width:0.33297658"
     d="m 296.5873,98.498527 c -1.9684,14.454253 -8.81803,28.599743 -18.94861,39.131713 -7.03822,7.31708 -15.67697,13.24423 -24.32122,16.68706 -11.38538,4.53456 -19.71688,6.69338 -32.30539,8.3708 -4.89326,0.65202 -7.13232,0.75394 -16.64217,0.75748 -11.3458,0.004 -13.91651,-0.17938 -25.80569,-1.84304 C 132.91385,155.21466 84.347815,131.74221 52.564401,100.70553 40.734562,89.153632 32.043975,77.912037 25.791307,66.07354 23.75072,62.209993 20.487071,54.522449 19.712784,51.755547 19.27387,50.187101 3.5359475,6.9255317 2.5867145,4.6781362 2.1721986,3.6967343 2.1464262,3.425708 2.4798024,3.5538573 2.7214002,3.6467279 11.174816,7.0381277 21.26517,11.0903 c 10.090353,4.052175 18.558884,7.36759 18.818956,7.36759 0.260071,0 1.985849,-1.1915 3.835061,-2.647777 l 3.362204,-2.647777 113.173819,-0.04952 c 66.42824,-0.02906 113.17383,0.07358 113.17383,0.248541 0,0.163938 -2.99679,2.979927 -6.65953,6.257752 -3.66274,3.277825 -6.65953,6.147827 -6.65953,6.377783 0,0.229958 1.26675,1.187492 2.815,2.127857 1.54825,0.940366 4.24537,2.777491 5.99358,4.0825 4.58159,3.420066 13.53546,12.465687 12.93431,13.066839 -0.0879,0.08797 -1.1716,-0.605897 -2.40805,-1.541921 -7.91993,-5.99554 -19.03801,-10.049303 -31.98795,-11.663137 -4.2371,-0.528028 -16.81571,-0.536508 -21.80997,-0.01472 -40.40727,4.221799 -82.01069,27.347935 -101.42955,56.381775 -2.92445,4.372453 -6.35874,11.128328 -7.64614,15.041365 -0.49215,1.49587 -3.3521,9.45026 -6.35546,17.67642 -3.00337,8.22614 -5.33755,15.07974 -5.18709,15.2302 0.15047,0.15046 5.69876,-1.89755 12.32956,-4.55112 6.6308,-2.65358 12.24602,-4.8247 12.47826,-4.8247 0.23224,0 1.34819,0.7492 2.47987,1.66489 l 2.05759,1.66488 h 74.27247 c 42.10986,0 74.27246,-0.12592 74.27246,-0.29079 0,-0.15993 -2.02061,-2.07039 -4.49026,-4.24545 -2.46965,-2.17507 -4.49248,-4.06181 -4.49518,-4.19276 -0.003,-0.13096 1.30338,-1.10492 2.90242,-2.16435 3.65257,-2.42 9.33864,-7.87303 11.85778,-11.37181 2.62045,-3.63949 5.2752,-8.855714 6.54694,-12.863864 0.58108,-1.831372 1.18289,-3.629445 1.33738,-3.995719 0.44153,-1.046902 0.32201,3.520707 -0.19065,7.285254 z"
     id="path3863"
     inkscape:connector-curvature="0" />
</svg>
